<mxfile host="app.diagrams.net" modified="2024-02-13T11:31:45.887Z" agent="Mozilla/5.0 (Macintosh; Intel Mac OS X 10_15_7) AppleWebKit/537.36 (KHTML, like Gecko) Chrome/121.0.0.0 Safari/537.36" etag="1L59knkfFgDrsHEW2LrZ" version="23.1.1" type="github" pages="4">
  <diagram name="CONECTION - ODATA" id="UidrZuAmAdqeSwWHQQSL">
    <mxGraphModel dx="1183" dy="623" grid="1" gridSize="10" guides="1" tooltips="1" connect="1" arrows="1" fold="1" page="1" pageScale="1" pageWidth="1169" pageHeight="827" math="0" shadow="0">
      <root>
        <mxCell id="0" />
        <mxCell id="1" parent="0" />
        <mxCell id="F5Ncu29IYRoZZnKg7ni3-1" value="&lt;font style=&quot;font-size: 18px;&quot;&gt;Não contemplado no &lt;br&gt;escopo atual&lt;/font&gt;" style="rounded=0;whiteSpace=wrap;html=1;dashed=1;strokeWidth=3;fillColor=#E6E6E6;labelPosition=center;verticalLabelPosition=top;align=center;verticalAlign=bottom;" vertex="1" parent="1">
          <mxGeometry x="1420" y="310" width="310" height="380" as="geometry" />
        </mxCell>
        <mxCell id="kcRMIoyiPNjC05RE6Iwy-9" style="edgeStyle=orthogonalEdgeStyle;rounded=0;orthogonalLoop=1;jettySize=auto;html=1;" parent="1" source="kcRMIoyiPNjC05RE6Iwy-1" target="kcRMIoyiPNjC05RE6Iwy-3" edge="1">
          <mxGeometry relative="1" as="geometry" />
        </mxCell>
        <mxCell id="kcRMIoyiPNjC05RE6Iwy-10" value="ENDPOINT&lt;br&gt;TRANSAÇÃO LX02" style="edgeLabel;html=1;align=center;verticalAlign=middle;resizable=0;points=[];" parent="kcRMIoyiPNjC05RE6Iwy-9" vertex="1" connectable="0">
          <mxGeometry x="0.1961" relative="1" as="geometry">
            <mxPoint x="-22" y="-20" as="offset" />
          </mxGeometry>
        </mxCell>
        <mxCell id="kcRMIoyiPNjC05RE6Iwy-1" value="SAP MAIIS&lt;br&gt;ON PREMISE" style="image;sketch=0;aspect=fixed;html=1;points=[];align=center;fontSize=12;image=img/lib/mscae/SAP_HANA_on_Azure.svg;" parent="1" vertex="1">
          <mxGeometry x="220" y="171.5" width="90" height="45" as="geometry" />
        </mxCell>
        <mxCell id="kcRMIoyiPNjC05RE6Iwy-19" style="edgeStyle=orthogonalEdgeStyle;rounded=0;orthogonalLoop=1;jettySize=auto;html=1;" parent="1" source="kcRMIoyiPNjC05RE6Iwy-2" target="kcRMIoyiPNjC05RE6Iwy-18" edge="1">
          <mxGeometry relative="1" as="geometry" />
        </mxCell>
        <mxCell id="kcRMIoyiPNjC05RE6Iwy-2" value="RELAÇÃO&lt;br&gt;PEÇAS,&lt;br&gt;PLATINAS,&lt;br&gt;DADOS AUXILIARES" style="shape=image;html=1;verticalAlign=top;verticalLabelPosition=bottom;labelBackgroundColor=#ffffff;imageAspect=0;aspect=fixed;image=https://cdn3.iconfinder.com/data/icons/brands-applications/512/Excel_D-128.png" parent="1" vertex="1">
          <mxGeometry x="220" y="462.5" width="68" height="68" as="geometry" />
        </mxCell>
        <mxCell id="kcRMIoyiPNjC05RE6Iwy-11" style="edgeStyle=orthogonalEdgeStyle;rounded=0;orthogonalLoop=1;jettySize=auto;html=1;" parent="1" source="kcRMIoyiPNjC05RE6Iwy-3" target="kcRMIoyiPNjC05RE6Iwy-4" edge="1">
          <mxGeometry relative="1" as="geometry" />
        </mxCell>
        <mxCell id="kcRMIoyiPNjC05RE6Iwy-3" value="APPFLOW&lt;br&gt;SAP ODATA" style="sketch=0;points=[[0,0,0],[0.25,0,0],[0.5,0,0],[0.75,0,0],[1,0,0],[0,1,0],[0.25,1,0],[0.5,1,0],[0.75,1,0],[1,1,0],[0,0.25,0],[0,0.5,0],[0,0.75,0],[1,0.25,0],[1,0.5,0],[1,0.75,0]];outlineConnect=0;fontColor=#232F3E;fillColor=#E7157B;strokeColor=#ffffff;dashed=0;verticalLabelPosition=bottom;verticalAlign=top;align=center;html=1;fontSize=12;fontStyle=0;aspect=fixed;shape=mxgraph.aws4.resourceIcon;resIcon=mxgraph.aws4.appflow;" parent="1" vertex="1">
          <mxGeometry x="480" y="155" width="78" height="78" as="geometry" />
        </mxCell>
        <mxCell id="kcRMIoyiPNjC05RE6Iwy-4" value="S3 BUCKET" style="sketch=0;outlineConnect=0;fontColor=#232F3E;gradientColor=none;fillColor=#7AA116;strokeColor=none;dashed=0;verticalLabelPosition=bottom;verticalAlign=top;align=center;html=1;fontSize=12;fontStyle=0;aspect=fixed;pointerEvents=1;shape=mxgraph.aws4.bucket_with_objects;" parent="1" vertex="1">
          <mxGeometry x="750" y="150" width="84.62" height="88" as="geometry" />
        </mxCell>
        <mxCell id="kcRMIoyiPNjC05RE6Iwy-5" value="DATABRICKS&lt;br&gt;ETL / CATALOG" style="image;aspect=fixed;html=1;points=[];align=center;fontSize=12;image=img/lib/azure2/analytics/Azure_Databricks.svg;" parent="1" vertex="1">
          <mxGeometry x="1020" y="451.67" width="82.8" height="89.66" as="geometry" />
        </mxCell>
        <mxCell id="kcRMIoyiPNjC05RE6Iwy-27" style="edgeStyle=orthogonalEdgeStyle;rounded=0;orthogonalLoop=1;jettySize=auto;html=1;entryX=0;entryY=0.5;entryDx=0;entryDy=0;" parent="1" source="kcRMIoyiPNjC05RE6Iwy-6" target="kcRMIoyiPNjC05RE6Iwy-8" edge="1">
          <mxGeometry relative="1" as="geometry">
            <Array as="points">
              <mxPoint x="1460" y="497" />
              <mxPoint x="1460" y="398" />
            </Array>
          </mxGeometry>
        </mxCell>
        <mxCell id="kcRMIoyiPNjC05RE6Iwy-6" value="DATABRICKS&lt;br&gt;WAREHOUSE" style="image;aspect=fixed;html=1;points=[];align=center;fontSize=12;image=img/lib/azure2/databases/SQL_Data_Warehouses.svg;" parent="1" vertex="1">
          <mxGeometry x="1280" y="453.85" width="84" height="85.31" as="geometry" />
        </mxCell>
        <mxCell id="kcRMIoyiPNjC05RE6Iwy-7" value="POWER BI" style="image;aspect=fixed;html=1;points=[];align=center;fontSize=12;image=img/lib/azure2/analytics/Power_BI_Embedded.svg;" parent="1" vertex="1">
          <mxGeometry x="1560" y="566.25" width="51" height="68" as="geometry" />
        </mxCell>
        <mxCell id="kcRMIoyiPNjC05RE6Iwy-8" value="TABLEAU" style="shape=image;verticalLabelPosition=bottom;labelBackgroundColor=default;verticalAlign=top;aspect=fixed;imageAspect=0;image=https://cdn.worldvectorlogo.com/logos/tableau-software.svg;" parent="1" vertex="1">
          <mxGeometry x="1545.98" y="358.75" width="79.05" height="78" as="geometry" />
        </mxCell>
        <mxCell id="kcRMIoyiPNjC05RE6Iwy-13" value="&lt;font style=&quot;font-size: 18px;&quot;&gt;CICLO DE EXTRAÇÃO: HORA EM HORA&lt;/font&gt;" style="text;html=1;align=center;verticalAlign=middle;resizable=0;points=[];autosize=1;strokeColor=none;fillColor=none;" parent="1" vertex="1">
          <mxGeometry x="339" y="80" width="360" height="40" as="geometry" />
        </mxCell>
        <mxCell id="kcRMIoyiPNjC05RE6Iwy-15" style="edgeStyle=orthogonalEdgeStyle;rounded=0;orthogonalLoop=1;jettySize=auto;html=1;" parent="1" source="kcRMIoyiPNjC05RE6Iwy-4" target="kcRMIoyiPNjC05RE6Iwy-5" edge="1">
          <mxGeometry relative="1" as="geometry" />
        </mxCell>
        <mxCell id="kcRMIoyiPNjC05RE6Iwy-18" value="FILE SERVER&lt;br&gt;RVS" style="sketch=0;points=[[0,0,0],[0.25,0,0],[0.5,0,0],[0.75,0,0],[1,0,0],[0,1,0],[0.25,1,0],[0.5,1,0],[0.75,1,0],[1,1,0],[0,0.25,0],[0,0.5,0],[0,0.75,0],[1,0.25,0],[1,0.5,0],[1,0.75,0]];outlineConnect=0;fontColor=#232F3E;fillColor=#ED7100;strokeColor=#ffffff;dashed=0;verticalLabelPosition=bottom;verticalAlign=top;align=center;html=1;fontSize=12;fontStyle=0;aspect=fixed;shape=mxgraph.aws4.resourceIcon;resIcon=mxgraph.aws4.ec2;" parent="1" vertex="1">
          <mxGeometry x="480" y="457.5" width="78" height="78" as="geometry" />
        </mxCell>
        <mxCell id="kcRMIoyiPNjC05RE6Iwy-21" value="STORAGE&lt;br&gt;GATEWAY" style="outlineConnect=0;dashed=0;verticalLabelPosition=bottom;verticalAlign=top;align=center;html=1;shape=mxgraph.aws3.storage_gateway;fillColor=#E05243;gradientColor=none;" parent="1" vertex="1">
          <mxGeometry x="754.06" y="450" width="76.5" height="93" as="geometry" />
        </mxCell>
        <mxCell id="kcRMIoyiPNjC05RE6Iwy-22" style="edgeStyle=orthogonalEdgeStyle;rounded=0;orthogonalLoop=1;jettySize=auto;html=1;entryX=0;entryY=0.5;entryDx=0;entryDy=0;entryPerimeter=0;" parent="1" source="kcRMIoyiPNjC05RE6Iwy-18" target="kcRMIoyiPNjC05RE6Iwy-21" edge="1">
          <mxGeometry relative="1" as="geometry" />
        </mxCell>
        <mxCell id="kcRMIoyiPNjC05RE6Iwy-23" style="edgeStyle=orthogonalEdgeStyle;rounded=0;orthogonalLoop=1;jettySize=auto;html=1;entryX=-0.024;entryY=0.497;entryDx=0;entryDy=0;entryPerimeter=0;" parent="1" source="kcRMIoyiPNjC05RE6Iwy-21" target="kcRMIoyiPNjC05RE6Iwy-5" edge="1">
          <mxGeometry relative="1" as="geometry" />
        </mxCell>
        <mxCell id="kcRMIoyiPNjC05RE6Iwy-24" value="&lt;span style=&quot;font-size: 18px;&quot;&gt;ATUALIZAÇÃO SOB DEMANDA&lt;/span&gt;" style="text;html=1;align=center;verticalAlign=middle;resizable=0;points=[];autosize=1;strokeColor=none;fillColor=none;" parent="1" vertex="1">
          <mxGeometry x="374" y="394" width="290" height="40" as="geometry" />
        </mxCell>
        <mxCell id="kcRMIoyiPNjC05RE6Iwy-26" style="edgeStyle=orthogonalEdgeStyle;rounded=0;orthogonalLoop=1;jettySize=auto;html=1;entryX=-0.046;entryY=0.501;entryDx=0;entryDy=0;entryPerimeter=0;" parent="1" source="kcRMIoyiPNjC05RE6Iwy-5" target="kcRMIoyiPNjC05RE6Iwy-6" edge="1">
          <mxGeometry relative="1" as="geometry" />
        </mxCell>
        <mxCell id="kcRMIoyiPNjC05RE6Iwy-28" style="edgeStyle=orthogonalEdgeStyle;rounded=0;orthogonalLoop=1;jettySize=auto;html=1;entryX=0.014;entryY=0.494;entryDx=0;entryDy=0;entryPerimeter=0;" parent="1" source="kcRMIoyiPNjC05RE6Iwy-6" target="kcRMIoyiPNjC05RE6Iwy-7" edge="1">
          <mxGeometry relative="1" as="geometry">
            <Array as="points">
              <mxPoint x="1460" y="497" />
              <mxPoint x="1460" y="600" />
            </Array>
          </mxGeometry>
        </mxCell>
        <mxCell id="6CaCfwQ1K0hfqUPCSmio-1" value="" style="sketch=0;points=[[0,0,0],[0.25,0,0],[0.5,0,0],[0.75,0,0],[1,0,0],[0,1,0],[0.25,1,0],[0.5,1,0],[0.75,1,0],[1,1,0],[0,0.25,0],[0,0.5,0],[0,0.75,0],[1,0.25,0],[1,0.5,0],[1,0.75,0]];outlineConnect=0;fontColor=#232F3E;fillColor=#ED7100;strokeColor=#ffffff;dashed=0;verticalLabelPosition=bottom;verticalAlign=top;align=center;html=1;fontSize=12;fontStyle=0;aspect=fixed;shape=mxgraph.aws4.resourceIcon;resIcon=mxgraph.aws4.lambda;" vertex="1" parent="1">
          <mxGeometry x="740" y="300" width="78" height="78" as="geometry" />
        </mxCell>
      </root>
    </mxGraphModel>
  </diagram>
  <diagram name="CONECTION - RVS" id="KLd2XLQ2eiXw8zhladaL">
    <mxGraphModel dx="1420" dy="747" grid="1" gridSize="10" guides="1" tooltips="1" connect="1" arrows="1" fold="1" page="1" pageScale="1" pageWidth="1169" pageHeight="827" math="0" shadow="0">
      <root>
        <mxCell id="B0Wa1UnxVgJV-3vDql_I-0" />
        <mxCell id="B0Wa1UnxVgJV-3vDql_I-1" parent="B0Wa1UnxVgJV-3vDql_I-0" />
        <mxCell id="B0Wa1UnxVgJV-3vDql_I-2" value="&lt;font style=&quot;font-size: 18px;&quot;&gt;Não contemplado no &lt;br&gt;escopo atual&lt;/font&gt;" style="rounded=0;whiteSpace=wrap;html=1;dashed=1;strokeWidth=3;fillColor=#E6E6E6;labelPosition=center;verticalLabelPosition=top;align=center;verticalAlign=bottom;" parent="B0Wa1UnxVgJV-3vDql_I-1" vertex="1">
          <mxGeometry x="1225.94" y="199.5" width="310" height="380" as="geometry" />
        </mxCell>
        <mxCell id="Zg9MgK8GXqTkuD5mNvaN-8" style="edgeStyle=orthogonalEdgeStyle;rounded=0;orthogonalLoop=1;jettySize=auto;html=1;" parent="B0Wa1UnxVgJV-3vDql_I-1" source="B0Wa1UnxVgJV-3vDql_I-5" target="B0Wa1UnxVgJV-3vDql_I-18" edge="1">
          <mxGeometry relative="1" as="geometry" />
        </mxCell>
        <mxCell id="Zg9MgK8GXqTkuD5mNvaN-10" value="CICLO DE EXTRAÇÃO: &lt;br&gt;HORA EM HORA" style="edgeLabel;html=1;align=center;verticalAlign=middle;resizable=0;points=[];" parent="Zg9MgK8GXqTkuD5mNvaN-8" vertex="1" connectable="0">
          <mxGeometry x="-0.5494" y="1" relative="1" as="geometry">
            <mxPoint x="23" y="-22" as="offset" />
          </mxGeometry>
        </mxCell>
        <mxCell id="B0Wa1UnxVgJV-3vDql_I-5" value="SAP MAIIS&lt;br&gt;ON PREMISE" style="image;sketch=0;aspect=fixed;html=1;points=[];align=center;fontSize=12;image=img/lib/mscae/SAP_HANA_on_Azure.svg;" parent="B0Wa1UnxVgJV-3vDql_I-1" vertex="1">
          <mxGeometry x="240" y="170" width="90" height="45" as="geometry" />
        </mxCell>
        <mxCell id="B0Wa1UnxVgJV-3vDql_I-7" value="RELAÇÃO&lt;br&gt;PEÇAS,&lt;br&gt;PLATINAS,&lt;br&gt;DADOS AUXILIARES" style="shape=image;html=1;verticalAlign=top;verticalLabelPosition=bottom;labelBackgroundColor=#ffffff;imageAspect=0;aspect=fixed;image=https://cdn3.iconfinder.com/data/icons/brands-applications/512/Excel_D-128.png" parent="B0Wa1UnxVgJV-3vDql_I-1" vertex="1">
          <mxGeometry x="240" y="352.5" width="68" height="68" as="geometry" />
        </mxCell>
        <mxCell id="B0Wa1UnxVgJV-3vDql_I-11" value="DATABRICKS&lt;br&gt;ETL / CATALOG" style="image;aspect=fixed;html=1;points=[];align=center;fontSize=12;image=img/lib/azure2/analytics/Azure_Databricks.svg;" parent="B0Wa1UnxVgJV-3vDql_I-1" vertex="1">
          <mxGeometry x="895.94" y="341.17" width="82.8" height="89.66" as="geometry" />
        </mxCell>
        <mxCell id="B0Wa1UnxVgJV-3vDql_I-12" style="edgeStyle=orthogonalEdgeStyle;rounded=0;orthogonalLoop=1;jettySize=auto;html=1;entryX=0;entryY=0.5;entryDx=0;entryDy=0;" parent="B0Wa1UnxVgJV-3vDql_I-1" source="B0Wa1UnxVgJV-3vDql_I-13" target="B0Wa1UnxVgJV-3vDql_I-15" edge="1">
          <mxGeometry relative="1" as="geometry">
            <Array as="points">
              <mxPoint x="1265.94" y="386.5" />
              <mxPoint x="1265.94" y="287.5" />
            </Array>
          </mxGeometry>
        </mxCell>
        <mxCell id="B0Wa1UnxVgJV-3vDql_I-13" value="DATABRICKS&lt;br&gt;WAREHOUSE" style="image;aspect=fixed;html=1;points=[];align=center;fontSize=12;image=img/lib/azure2/databases/SQL_Data_Warehouses.svg;" parent="B0Wa1UnxVgJV-3vDql_I-1" vertex="1">
          <mxGeometry x="1085.94" y="343.35" width="84" height="85.31" as="geometry" />
        </mxCell>
        <mxCell id="B0Wa1UnxVgJV-3vDql_I-14" value="POWER BI" style="image;aspect=fixed;html=1;points=[];align=center;fontSize=12;image=img/lib/azure2/analytics/Power_BI_Embedded.svg;" parent="B0Wa1UnxVgJV-3vDql_I-1" vertex="1">
          <mxGeometry x="1365.94" y="455.75" width="51" height="68" as="geometry" />
        </mxCell>
        <mxCell id="B0Wa1UnxVgJV-3vDql_I-15" value="TABLEAU" style="shape=image;verticalLabelPosition=bottom;labelBackgroundColor=default;verticalAlign=top;aspect=fixed;imageAspect=0;image=https://cdn.worldvectorlogo.com/logos/tableau-software.svg;" parent="B0Wa1UnxVgJV-3vDql_I-1" vertex="1">
          <mxGeometry x="1351.92" y="248.25" width="79.05" height="78" as="geometry" />
        </mxCell>
        <mxCell id="B0Wa1UnxVgJV-3vDql_I-18" value="FILE SERVER&lt;br&gt;RVS" style="sketch=0;points=[[0,0,0],[0.25,0,0],[0.5,0,0],[0.75,0,0],[1,0,0],[0,1,0],[0.25,1,0],[0.5,1,0],[0.75,1,0],[1,1,0],[0,0.25,0],[0,0.5,0],[0,0.75,0],[1,0.25,0],[1,0.5,0],[1,0.75,0]];outlineConnect=0;fontColor=#232F3E;fillColor=#ED7100;strokeColor=#ffffff;dashed=0;verticalLabelPosition=bottom;verticalAlign=top;align=center;html=1;fontSize=12;fontStyle=0;aspect=fixed;shape=mxgraph.aws4.resourceIcon;resIcon=mxgraph.aws4.ec2;" parent="B0Wa1UnxVgJV-3vDql_I-1" vertex="1">
          <mxGeometry x="500" y="347" width="78" height="78" as="geometry" />
        </mxCell>
        <mxCell id="B0Wa1UnxVgJV-3vDql_I-19" value="STORAGE&lt;br&gt;GATEWAY" style="outlineConnect=0;dashed=0;verticalLabelPosition=bottom;verticalAlign=top;align=center;html=1;shape=mxgraph.aws3.storage_gateway;fillColor=#E05243;gradientColor=none;" parent="B0Wa1UnxVgJV-3vDql_I-1" vertex="1">
          <mxGeometry x="700" y="339.5" width="76.5" height="93" as="geometry" />
        </mxCell>
        <mxCell id="B0Wa1UnxVgJV-3vDql_I-20" style="edgeStyle=orthogonalEdgeStyle;rounded=0;orthogonalLoop=1;jettySize=auto;html=1;entryX=0;entryY=0.5;entryDx=0;entryDy=0;entryPerimeter=0;" parent="B0Wa1UnxVgJV-3vDql_I-1" source="B0Wa1UnxVgJV-3vDql_I-18" target="B0Wa1UnxVgJV-3vDql_I-19" edge="1">
          <mxGeometry relative="1" as="geometry" />
        </mxCell>
        <mxCell id="B0Wa1UnxVgJV-3vDql_I-21" style="edgeStyle=orthogonalEdgeStyle;rounded=0;orthogonalLoop=1;jettySize=auto;html=1;entryX=-0.024;entryY=0.497;entryDx=0;entryDy=0;entryPerimeter=0;" parent="B0Wa1UnxVgJV-3vDql_I-1" source="B0Wa1UnxVgJV-3vDql_I-19" target="B0Wa1UnxVgJV-3vDql_I-11" edge="1">
          <mxGeometry relative="1" as="geometry" />
        </mxCell>
        <mxCell id="B0Wa1UnxVgJV-3vDql_I-23" style="edgeStyle=orthogonalEdgeStyle;rounded=0;orthogonalLoop=1;jettySize=auto;html=1;entryX=-0.046;entryY=0.501;entryDx=0;entryDy=0;entryPerimeter=0;" parent="B0Wa1UnxVgJV-3vDql_I-1" source="B0Wa1UnxVgJV-3vDql_I-11" target="B0Wa1UnxVgJV-3vDql_I-13" edge="1">
          <mxGeometry relative="1" as="geometry" />
        </mxCell>
        <mxCell id="B0Wa1UnxVgJV-3vDql_I-24" style="edgeStyle=orthogonalEdgeStyle;rounded=0;orthogonalLoop=1;jettySize=auto;html=1;entryX=0.014;entryY=0.494;entryDx=0;entryDy=0;entryPerimeter=0;" parent="B0Wa1UnxVgJV-3vDql_I-1" source="B0Wa1UnxVgJV-3vDql_I-13" target="B0Wa1UnxVgJV-3vDql_I-14" edge="1">
          <mxGeometry relative="1" as="geometry">
            <Array as="points">
              <mxPoint x="1265.94" y="386.5" />
              <mxPoint x="1265.94" y="489.5" />
            </Array>
          </mxGeometry>
        </mxCell>
        <mxCell id="Zg9MgK8GXqTkuD5mNvaN-9" style="edgeStyle=orthogonalEdgeStyle;rounded=0;orthogonalLoop=1;jettySize=auto;html=1;entryX=0;entryY=0.5;entryDx=0;entryDy=0;entryPerimeter=0;" parent="B0Wa1UnxVgJV-3vDql_I-1" source="B0Wa1UnxVgJV-3vDql_I-7" target="B0Wa1UnxVgJV-3vDql_I-18" edge="1">
          <mxGeometry relative="1" as="geometry" />
        </mxCell>
        <mxCell id="Zg9MgK8GXqTkuD5mNvaN-11" value="ATUALIZAÇÃO &lt;br&gt;SOB DEMANDA" style="edgeLabel;html=1;align=center;verticalAlign=middle;resizable=0;points=[];" parent="Zg9MgK8GXqTkuD5mNvaN-9" vertex="1" connectable="0">
          <mxGeometry x="-0.1311" y="2" relative="1" as="geometry">
            <mxPoint y="-15" as="offset" />
          </mxGeometry>
        </mxCell>
      </root>
    </mxGraphModel>
  </diagram>
  <diagram name="CONECTION - DMS" id="KXR6r7bN_u7B6J1EJAxB">
    <mxGraphModel dx="1420" dy="747" grid="1" gridSize="10" guides="1" tooltips="1" connect="1" arrows="1" fold="1" page="1" pageScale="1" pageWidth="1169" pageHeight="827" math="0" shadow="0">
      <root>
        <mxCell id="4iis-LWFud_l5uTC5Qi4-0" />
        <mxCell id="4iis-LWFud_l5uTC5Qi4-1" parent="4iis-LWFud_l5uTC5Qi4-0" />
        <mxCell id="okrz7kgm5_R2m0K5VGPt-0" value="&lt;font style=&quot;font-size: 18px;&quot;&gt;Não contemplado no &lt;br&gt;escopo atual&lt;/font&gt;" style="rounded=0;whiteSpace=wrap;html=1;dashed=1;strokeWidth=3;fillColor=#E6E6E6;labelPosition=center;verticalLabelPosition=top;align=center;verticalAlign=bottom;" vertex="1" parent="4iis-LWFud_l5uTC5Qi4-1">
          <mxGeometry x="1420" y="310" width="310" height="380" as="geometry" />
        </mxCell>
        <mxCell id="4iis-LWFud_l5uTC5Qi4-2" style="edgeStyle=orthogonalEdgeStyle;rounded=0;orthogonalLoop=1;jettySize=auto;html=1;entryX=0;entryY=0.5;entryDx=0;entryDy=0;" parent="4iis-LWFud_l5uTC5Qi4-1" source="4iis-LWFud_l5uTC5Qi4-4" target="4iis-LWFud_l5uTC5Qi4-18" edge="1">
          <mxGeometry relative="1" as="geometry">
            <mxPoint x="460" y="210" as="targetPoint" />
          </mxGeometry>
        </mxCell>
        <mxCell id="4iis-LWFud_l5uTC5Qi4-3" value="EXTRAÇÃO DIRETO DO &lt;br&gt;BANCO" style="edgeLabel;html=1;align=center;verticalAlign=middle;resizable=0;points=[];" parent="4iis-LWFud_l5uTC5Qi4-2" vertex="1" connectable="0">
          <mxGeometry x="0.1961" relative="1" as="geometry">
            <mxPoint x="-22" y="-20" as="offset" />
          </mxGeometry>
        </mxCell>
        <mxCell id="4iis-LWFud_l5uTC5Qi4-4" value="SAP MAIIS&lt;br&gt;ON PREMISE" style="image;sketch=0;aspect=fixed;html=1;points=[];align=center;fontSize=12;image=img/lib/mscae/SAP_HANA_on_Azure.svg;" parent="4iis-LWFud_l5uTC5Qi4-1" vertex="1">
          <mxGeometry x="220" y="171.5" width="90" height="45" as="geometry" />
        </mxCell>
        <mxCell id="4iis-LWFud_l5uTC5Qi4-5" style="edgeStyle=orthogonalEdgeStyle;rounded=0;orthogonalLoop=1;jettySize=auto;html=1;" parent="4iis-LWFud_l5uTC5Qi4-1" source="4iis-LWFud_l5uTC5Qi4-6" target="4iis-LWFud_l5uTC5Qi4-17" edge="1">
          <mxGeometry relative="1" as="geometry" />
        </mxCell>
        <mxCell id="4iis-LWFud_l5uTC5Qi4-6" value="RELAÇÃO&lt;br style=&quot;border-color: var(--border-color);&quot;&gt;PEÇAS,&lt;br style=&quot;border-color: var(--border-color);&quot;&gt;PLATINAS,&lt;br style=&quot;border-color: var(--border-color);&quot;&gt;DADOS AUXILIARES" style="shape=image;html=1;verticalAlign=top;verticalLabelPosition=bottom;labelBackgroundColor=#ffffff;imageAspect=0;aspect=fixed;image=https://cdn3.iconfinder.com/data/icons/brands-applications/512/Excel_D-128.png" parent="4iis-LWFud_l5uTC5Qi4-1" vertex="1">
          <mxGeometry x="220" y="462.5" width="68" height="68" as="geometry" />
        </mxCell>
        <mxCell id="4iis-LWFud_l5uTC5Qi4-9" value="S3 BUCKET" style="sketch=0;outlineConnect=0;fontColor=#232F3E;gradientColor=none;fillColor=#7AA116;strokeColor=none;dashed=0;verticalLabelPosition=bottom;verticalAlign=top;align=center;html=1;fontSize=12;fontStyle=0;aspect=fixed;pointerEvents=1;shape=mxgraph.aws4.bucket_with_objects;" parent="4iis-LWFud_l5uTC5Qi4-1" vertex="1">
          <mxGeometry x="750" y="150" width="84.62" height="88" as="geometry" />
        </mxCell>
        <mxCell id="4iis-LWFud_l5uTC5Qi4-10" value="DATABRICKS&lt;br&gt;ETL / CATALOG" style="image;aspect=fixed;html=1;points=[];align=center;fontSize=12;image=img/lib/azure2/analytics/Azure_Databricks.svg;" parent="4iis-LWFud_l5uTC5Qi4-1" vertex="1">
          <mxGeometry x="1020" y="451.67" width="82.8" height="89.66" as="geometry" />
        </mxCell>
        <mxCell id="4iis-LWFud_l5uTC5Qi4-11" style="edgeStyle=orthogonalEdgeStyle;rounded=0;orthogonalLoop=1;jettySize=auto;html=1;entryX=0;entryY=0.5;entryDx=0;entryDy=0;" parent="4iis-LWFud_l5uTC5Qi4-1" source="4iis-LWFud_l5uTC5Qi4-12" target="4iis-LWFud_l5uTC5Qi4-14" edge="1">
          <mxGeometry relative="1" as="geometry">
            <Array as="points">
              <mxPoint x="1460" y="497" />
              <mxPoint x="1460" y="398" />
            </Array>
          </mxGeometry>
        </mxCell>
        <mxCell id="4iis-LWFud_l5uTC5Qi4-12" value="DATABRICKS&lt;br&gt;WAREHOUSE" style="image;aspect=fixed;html=1;points=[];align=center;fontSize=12;image=img/lib/azure2/databases/SQL_Data_Warehouses.svg;" parent="4iis-LWFud_l5uTC5Qi4-1" vertex="1">
          <mxGeometry x="1280" y="453.85" width="84" height="85.31" as="geometry" />
        </mxCell>
        <mxCell id="4iis-LWFud_l5uTC5Qi4-13" value="POWER BI" style="image;aspect=fixed;html=1;points=[];align=center;fontSize=12;image=img/lib/azure2/analytics/Power_BI_Embedded.svg;" parent="4iis-LWFud_l5uTC5Qi4-1" vertex="1">
          <mxGeometry x="1560" y="566.25" width="51" height="68" as="geometry" />
        </mxCell>
        <mxCell id="4iis-LWFud_l5uTC5Qi4-14" value="TABLEAU" style="shape=image;verticalLabelPosition=bottom;labelBackgroundColor=default;verticalAlign=top;aspect=fixed;imageAspect=0;image=https://cdn.worldvectorlogo.com/logos/tableau-software.svg;" parent="4iis-LWFud_l5uTC5Qi4-1" vertex="1">
          <mxGeometry x="1545.98" y="358.75" width="79.05" height="78" as="geometry" />
        </mxCell>
        <mxCell id="4iis-LWFud_l5uTC5Qi4-15" value="&lt;font style=&quot;font-size: 18px;&quot;&gt;CICLO DE EXTRAÇÃO: HORA EM HORA&lt;/font&gt;" style="text;html=1;align=center;verticalAlign=middle;resizable=0;points=[];autosize=1;strokeColor=none;fillColor=none;" parent="4iis-LWFud_l5uTC5Qi4-1" vertex="1">
          <mxGeometry x="339" y="80" width="360" height="40" as="geometry" />
        </mxCell>
        <mxCell id="4iis-LWFud_l5uTC5Qi4-16" style="edgeStyle=orthogonalEdgeStyle;rounded=0;orthogonalLoop=1;jettySize=auto;html=1;" parent="4iis-LWFud_l5uTC5Qi4-1" source="4iis-LWFud_l5uTC5Qi4-9" target="4iis-LWFud_l5uTC5Qi4-10" edge="1">
          <mxGeometry relative="1" as="geometry" />
        </mxCell>
        <mxCell id="4iis-LWFud_l5uTC5Qi4-17" value="FILE SERVER&lt;br&gt;RVS" style="sketch=0;points=[[0,0,0],[0.25,0,0],[0.5,0,0],[0.75,0,0],[1,0,0],[0,1,0],[0.25,1,0],[0.5,1,0],[0.75,1,0],[1,1,0],[0,0.25,0],[0,0.5,0],[0,0.75,0],[1,0.25,0],[1,0.5,0],[1,0.75,0]];outlineConnect=0;fontColor=#232F3E;fillColor=#ED7100;strokeColor=#ffffff;dashed=0;verticalLabelPosition=bottom;verticalAlign=top;align=center;html=1;fontSize=12;fontStyle=0;aspect=fixed;shape=mxgraph.aws4.resourceIcon;resIcon=mxgraph.aws4.ec2;" parent="4iis-LWFud_l5uTC5Qi4-1" vertex="1">
          <mxGeometry x="480" y="457.5" width="78" height="78" as="geometry" />
        </mxCell>
        <mxCell id="usNrDQFJyMOGgjByg3X0-0" style="edgeStyle=orthogonalEdgeStyle;rounded=0;orthogonalLoop=1;jettySize=auto;html=1;" parent="4iis-LWFud_l5uTC5Qi4-1" source="4iis-LWFud_l5uTC5Qi4-18" target="4iis-LWFud_l5uTC5Qi4-9" edge="1">
          <mxGeometry relative="1" as="geometry" />
        </mxCell>
        <mxCell id="4iis-LWFud_l5uTC5Qi4-18" value="AWS&#xa;DATA MIGRATION&#xa;SERVICE" style="shape=image;verticalLabelPosition=bottom;labelBackgroundColor=default;verticalAlign=top;aspect=fixed;imageAspect=0;image=https://webfor.com.br/wp-content/uploads/2020/05/AWS-DMS-1.png;" parent="4iis-LWFud_l5uTC5Qi4-1" vertex="1">
          <mxGeometry x="480" y="152" width="83.5" height="83.5" as="geometry" />
        </mxCell>
        <mxCell id="4iis-LWFud_l5uTC5Qi4-19" value="STORAGE&lt;br&gt;GATEWAY" style="outlineConnect=0;dashed=0;verticalLabelPosition=bottom;verticalAlign=top;align=center;html=1;shape=mxgraph.aws3.storage_gateway;fillColor=#E05243;gradientColor=none;" parent="4iis-LWFud_l5uTC5Qi4-1" vertex="1">
          <mxGeometry x="754.06" y="450" width="76.5" height="93" as="geometry" />
        </mxCell>
        <mxCell id="4iis-LWFud_l5uTC5Qi4-20" style="edgeStyle=orthogonalEdgeStyle;rounded=0;orthogonalLoop=1;jettySize=auto;html=1;entryX=0;entryY=0.5;entryDx=0;entryDy=0;entryPerimeter=0;" parent="4iis-LWFud_l5uTC5Qi4-1" source="4iis-LWFud_l5uTC5Qi4-17" target="4iis-LWFud_l5uTC5Qi4-19" edge="1">
          <mxGeometry relative="1" as="geometry" />
        </mxCell>
        <mxCell id="4iis-LWFud_l5uTC5Qi4-21" style="edgeStyle=orthogonalEdgeStyle;rounded=0;orthogonalLoop=1;jettySize=auto;html=1;entryX=-0.024;entryY=0.497;entryDx=0;entryDy=0;entryPerimeter=0;" parent="4iis-LWFud_l5uTC5Qi4-1" source="4iis-LWFud_l5uTC5Qi4-19" target="4iis-LWFud_l5uTC5Qi4-10" edge="1">
          <mxGeometry relative="1" as="geometry" />
        </mxCell>
        <mxCell id="4iis-LWFud_l5uTC5Qi4-22" value="&lt;span style=&quot;font-size: 18px;&quot;&gt;ATUALIZAÇÃO SOB DEMANDA&lt;/span&gt;" style="text;html=1;align=center;verticalAlign=middle;resizable=0;points=[];autosize=1;strokeColor=none;fillColor=none;" parent="4iis-LWFud_l5uTC5Qi4-1" vertex="1">
          <mxGeometry x="374" y="394" width="290" height="40" as="geometry" />
        </mxCell>
        <mxCell id="4iis-LWFud_l5uTC5Qi4-23" style="edgeStyle=orthogonalEdgeStyle;rounded=0;orthogonalLoop=1;jettySize=auto;html=1;entryX=-0.046;entryY=0.501;entryDx=0;entryDy=0;entryPerimeter=0;" parent="4iis-LWFud_l5uTC5Qi4-1" source="4iis-LWFud_l5uTC5Qi4-10" target="4iis-LWFud_l5uTC5Qi4-12" edge="1">
          <mxGeometry relative="1" as="geometry" />
        </mxCell>
        <mxCell id="4iis-LWFud_l5uTC5Qi4-24" style="edgeStyle=orthogonalEdgeStyle;rounded=0;orthogonalLoop=1;jettySize=auto;html=1;entryX=0.014;entryY=0.494;entryDx=0;entryDy=0;entryPerimeter=0;" parent="4iis-LWFud_l5uTC5Qi4-1" source="4iis-LWFud_l5uTC5Qi4-12" target="4iis-LWFud_l5uTC5Qi4-13" edge="1">
          <mxGeometry relative="1" as="geometry">
            <Array as="points">
              <mxPoint x="1460" y="497" />
              <mxPoint x="1460" y="600" />
            </Array>
          </mxGeometry>
        </mxCell>
      </root>
    </mxGraphModel>
  </diagram>
  <diagram id="oZEe9xS3JwBMhsePpnZ1" name="Página-3">
    <mxGraphModel dx="1660" dy="747" grid="1" gridSize="10" guides="1" tooltips="1" connect="1" arrows="1" fold="1" page="1" pageScale="1" pageWidth="1169" pageHeight="827" math="0" shadow="0">
      <root>
        <mxCell id="0" />
        <mxCell id="1" parent="0" />
      </root>
    </mxGraphModel>
  </diagram>
</mxfile>
